<!DOCTYPE svg PUBLIC "-//W3C//DTD SVG 1.1//EN" "http://www.w3.org/Graphics/SVG/1.1/DTD/svg11.dtd">
<svg className="card-icon" height="512pt" viewBox="-17 0 512 512.009">
    <path d="M443.73 512.008H170.664c-18.828 0-34.137-15.309-34.137-34.133V256.008c0-18.824 15.309-34.133 34.137-34.133H443.73c18.825 0 34.133 15.309 34.133 34.133v221.867c0 18.824-15.316 34.133-34.133 34.133zM170.664 238.94c-9.414 0-17.066 7.657-17.066 17.067v221.867c0 9.414 7.652 17.066 17.066 17.066H443.73c9.41 0 17.067-7.652 17.067-17.066V256.008c0-9.41-7.656-17.067-17.067-17.067zm0 0"></path>
    <path d="M230.395 238.941h-34.133c-4.711 0-8.532-3.824-8.532-8.53V122.503c0-32.152-20.55-60.426-49.972-68.734-20.328-5.754-41.797-1.633-58.887 11.289-17.324 13.105-27.668 33.449-27.668 54.406v42.668c0 14.113-11.484 25.601-25.598 25.601-14.117 0-25.601-11.488-25.601-25.601v-42.668C.004 53.59 53.594 0 119.473 0c65.875 0 119.465 53.59 119.465 119.465v110.933c-.008 4.72-3.833 8.543-8.543 8.543zm-25.598-17.066h17.066V119.477c0-56.465-45.937-102.403-102.402-102.403S17.063 63.012 17.063 119.477v42.664c0 4.703 3.832 8.535 8.535 8.535 4.699 0 8.53-3.832 8.53-8.535v-42.664c0-26.278 12.88-51.704 34.442-68.02 21.383-16.18 48.297-21.336 73.828-14.105 36.747 10.382 62.399 45.394 62.399 85.152zm0 0M332.797 443.742h-51.2a8.538 8.538 0 0 1-6.374-2.86 8.527 8.527 0 0 1-2.102-6.663l7.938-67.867c-10.309-8.028-16.532-20.426-16.532-33.543 0-23.528 19.141-42.668 42.668-42.668 23.528 0 42.668 19.14 42.668 42.668 0 13.117-6.215 25.515-16.531 33.543l7.938 67.867a8.524 8.524 0 0 1-2.098 6.664 8.563 8.563 0 0 1-6.375 2.86zm-41.617-17.066h32.023l-7.422-63.473a8.522 8.522 0 0 1 4.18-8.363c8.031-4.664 12.828-12.903 12.828-22.024 0-14.113-11.488-25.597-25.601-25.597s-25.602 11.484-25.602 25.597c0 9.114 4.797 17.348 12.828 22.024a8.515 8.515 0 0 1 4.18 8.363zm0 0"></path>
</svg>