<?xml version="1.0" encoding="utf-8"?><!-- Uploaded to: SVG Repo, www.svgrepo.com, Generator: SVG Repo Mixer Tools -->
<svg className="card-icon"
    xmlns="http://www.w3.org/2000/svg" viewBox="0 0 361.424 361.424">
    <path d="M277.971 172.32c-7.82 0-14.16 6.34-14.16 14.16s6.34 14.16 14.16 14.16 14.16-6.34 14.16-14.16c0-7.821-6.34-14.16-14.16-14.16zm.162 19.557c-.054.002-.108.002-.162.002v-.16a5.24 5.24 0 1 1 5.24-5.24 5.24 5.24 0 0 1-5.078 5.398zM292.131 244.32c-.109-7.742-6.417-13.961-14.16-13.96-7.82.001-14.159 6.341-14.159 14.161s6.341 14.159 14.161 14.159c7.82-.001 14.159-6.341 14.159-14.161l-.001-.199zm-13.956 5.436a5.24 5.24 0 1 1 0 0zM245.811 201.4c-7.82 0-14.16 6.34-14.16 14.16s6.34 14.16 14.16 14.16 14.16-6.34 14.16-14.16c0-7.821-6.34-14.16-14.16-14.16zm5.24 14.16a5.24 5.24 0 1 1-10.48 0 5.24 5.24 0 0 1 10.48 0zM310.131 201.4c-7.82 0-14.16 6.34-14.16 14.16s6.34 14.16 14.16 14.16 14.16-6.34 14.16-14.16c0-7.821-6.34-14.16-14.16-14.16zm5.24 14.16a5.24 5.24 0 1 1-10.48 0 5.24 5.24 0 0 1 10.48 0z"></path>
    <path d="M361.313 211.479c-2.282-44.736-39.267-79.811-84.062-79.72h-72.52a24.32 24.32 0 0 0-19.72-21.8V65.72a4.48 4.48 0 0 0-8.92 0v44.24a24.319 24.319 0 0 0-19.36 21.8h-72.52C37.819 131.643.117 169.157 0 215.549c-.116 46.392 37.397 84.094 83.789 84.211 44.81.112 81.818-34.968 84.102-79.719h25.64c2.364 46.332 41.839 81.975 88.171 79.611s81.974-41.841 79.611-88.173zM180.731 118.44a15.4 15.4 0 0 1 15.24 13.32h-30.48a15.4 15.4 0 0 1 15.24-13.32zm96.52 172c-41.337-.044-74.836-33.543-74.88-74.88a4.48 4.48 0 0 0-4.48-4.48h-34.32a4.48 4.48 0 0 0-4.48 4.48c0 41.355-33.525 74.88-74.88 74.88s-74.88-33.525-74.88-74.88 33.525-74.88 74.88-74.88h193.04c41.355 0 74.88 33.525 74.88 74.88s-33.525 74.88-74.88 74.88z"></path>
    <path d="M112.451 201.4h-12v-12c0-7.82-6.34-14.16-14.16-14.16s-14.16 6.34-14.16 14.16v12h-12c-7.82 0-14.16 6.34-14.16 14.16s6.34 14.16 14.16 14.16h12v12c0 7.82 6.34 14.16 14.16 14.16s14.16-6.34 14.16-14.16v-12h12c7.82 0 14.16-6.34 14.16-14.16 0-7.821-6.34-14.16-14.16-14.16zm.2 19.44l-.2-.04h-16.48a4.44 4.44 0 0 0-4.48 4.4v16.56a5.24 5.24 0 1 1-10.48 0v-16.48a4.44 4.44 0 0 0-4.28-4.48h-16.64a5.24 5.24 0 1 1 0-10.48h16.64a4.44 4.44 0 0 0 4.48-4.4V189.4a5.24 5.24 0 0 1 10.48 0v16.48a4.44 4.44 0 0 0 4.4 4.48h16.56a5.24 5.24 0 1 1 0 10.48z"></path>
</svg>